<svg width="89" height="151" viewBox="0 0 89 151" fill="none" xmlns="http://www.w3.org/2000/svg">
<g clip-path="url(#clip0)">
<path d="M75.7932 31.8762H36.4642C33.2111 31.8762 30.5406 34.5406 30.5406 37.7863V113.165C30.5406 116.411 33.2111 119.075 36.4642 119.075H75.7447C78.9978 119.075 81.6683 116.411 81.6683 113.165V37.7863C81.7168 34.5406 79.0464 31.8762 75.7932 31.8762ZM50.2537 35.6063H62.0038C62.6836 35.6063 63.2177 36.1392 63.2177 36.8174C63.2177 37.4957 62.6836 38.0285 62.0038 38.0285H50.2537C49.5739 38.0285 49.0398 37.4957 49.0398 36.8174C49.0398 36.1392 49.5739 35.6063 50.2537 35.6063ZM56.1287 116.217C54.5264 116.217 53.2155 114.909 53.2155 113.311C53.2155 111.712 54.5264 110.404 56.1287 110.404C57.731 110.404 59.042 111.712 59.042 113.311C59.042 114.909 57.731 116.217 56.1287 116.217ZM77.1527 108.079H35.1047V40.8867H77.2013V108.079H77.1527Z" fill="white"/>
<path d="M83.5619 70.05H74.3366C71.3262 70.05 68.8985 67.6278 68.8985 64.6243C68.8985 61.6208 71.3262 59.1986 74.3366 59.1986H83.5619C86.5723 59.1986 89.0485 61.6208 89.0485 64.6243C89 67.6278 86.5723 70.05 83.5619 70.05Z" fill="white"/>
<path d="M83.5619 82.161H74.3366C71.3262 82.161 68.8985 79.7388 68.8985 76.7353C68.8985 73.7318 71.3262 71.3096 74.3366 71.3096H83.5619C86.5723 71.3096 89.0485 73.7318 89.0485 76.7353C89 79.7388 86.5723 82.161 83.5619 82.161Z" fill="white"/>
<path d="M83.5619 94.2721H74.3366C71.3262 94.2721 68.8985 91.8499 68.8985 88.8463C68.8985 85.8428 71.3262 83.4206 74.3366 83.4206H83.5619C86.5723 83.4206 89.0485 85.8428 89.0485 88.8463C89 91.8499 86.5723 94.2721 83.5619 94.2721Z" fill="white"/>
<path d="M83.5619 106.383H74.3366C71.3262 106.383 68.8985 103.961 68.8985 100.957C68.8985 97.9538 71.3262 95.5316 74.3366 95.5316H83.5619C86.5723 95.5316 89.0485 97.9538 89.0485 100.957C89 103.961 86.5723 106.383 83.5619 106.383Z" fill="white"/>
<path d="M0.485526 88.8463C-1.89363 72.7145 4.70975 66.9012 14.4206 61.3786C24.1315 55.856 44.0387 42.5823 47.9231 46.2156C51.8074 49.8489 44.6699 56.3404 41.611 58.6173C38.5521 60.8941 30.7834 66.3683 30.7834 66.3683V104.978C30.7348 104.978 3.88433 111.954 0.485526 88.8463Z" fill="white"/>
<path d="M61.3726 19.9105H50.9334V31.2948H61.3726V19.9105Z" fill="white"/>
<path d="M56.1287 20.0074H42.9705L49.5739 10.0279L56.1287 0L62.7321 10.0279L69.2869 20.0074H56.1287Z" fill="white"/>
<path d="M61.3726 119.705H50.9334V131.09H61.3726V119.705Z" fill="white"/>
<path d="M56.1287 130.993H69.2869L62.7321 141.021L56.1287 151L49.5739 141.021L42.9705 130.993H56.1287Z" fill="white"/>
</g>
<defs>
<clipPath id="clip0">
<rect width="89" height="151" fill="white"/>
</clipPath>
</defs>
</svg>
