<svg width="94" height="95" viewBox="0 0 94 95" fill="none" xmlns="http://www.w3.org/2000/svg">
<path d="M51.2149 73.4091C50.8968 72.6094 51.3739 71.8098 52.0102 71.6498C52.8054 71.33 53.6007 71.8098 53.7597 72.4495C54.0778 73.2492 53.6007 74.0488 52.9645 74.2087C52.8054 74.2087 52.6464 74.3687 52.4873 74.3687C52.0102 74.3687 51.3739 74.0488 51.2149 73.4091ZM42.467 73.4091C38.4907 73.0892 35.4687 71.0101 35.7868 69.0909C35.9459 67.0118 39.286 65.7323 43.2623 66.2121C47.2386 66.532 50.2606 68.6111 49.9425 70.5303C49.7834 72.2896 47.0795 73.569 43.8985 73.569C43.4213 73.4091 42.9442 73.4091 42.467 73.4091ZM59.3266 68.6111C58.6904 67.4916 59.8037 65.4125 62.0305 64.133C64.2572 62.6936 66.4839 62.5337 67.2792 63.6532C67.9154 64.7727 66.802 66.8518 64.5753 68.1313C63.3029 68.931 62.0305 69.4108 61.0761 69.4108C60.2809 69.4108 59.6447 69.0909 59.3266 68.6111ZM33.8782 59.9747C33.401 58.6953 34.0372 57.2559 35.3096 56.7761C36.5821 56.2963 38.0135 56.936 38.4907 58.2155C38.9679 59.4949 38.3316 60.9343 37.0592 61.4141C36.7411 61.5741 36.423 61.5741 36.264 61.5741C35.1506 61.5741 34.1963 60.9343 33.8782 59.9747ZM51.692 59.6549C51.2149 58.3754 51.8511 56.936 53.1235 56.4562C54.3959 55.9764 55.8274 56.6162 56.3046 57.8956C56.7817 59.1751 56.1455 60.6145 54.8731 61.0943C54.555 61.2542 54.2369 61.2542 54.0778 61.2542C52.9645 61.4141 52.0102 60.7744 51.692 59.6549ZM60.4399 58.2155C59.8037 56.4562 60.758 54.537 62.3486 54.0572C64.0981 53.4175 66.0068 54.3771 66.643 55.9764C67.2792 57.7357 66.3249 59.6549 64.7344 60.1347C64.4162 60.2946 63.9391 60.2946 63.621 60.2946C62.1895 60.2946 60.9171 59.4949 60.4399 58.2155ZM39.286 54.8569C38.8088 53.5774 39.445 52.298 40.7174 51.8182C41.9898 51.3384 43.2623 51.9781 43.7394 53.2576C44.2166 54.537 43.5804 55.8165 42.308 56.2963C41.9898 56.4562 41.8308 56.4562 41.5127 56.4562C40.5584 56.4562 39.6041 55.8165 39.286 54.8569ZM21.313 58.8552C19.7225 54.537 19.8816 50.3788 21.4721 49.7391C23.2217 49.0993 25.9255 52.138 27.5161 56.4562C29.1066 60.7744 28.9475 64.9327 27.357 65.5724C27.198 65.5724 27.0389 65.7323 26.8799 65.7323C25.2893 65.7323 22.9036 62.8535 21.313 58.8552ZM68.2335 56.4562C67.1201 55.8165 67.1201 53.4175 68.2335 51.1784C69.5059 48.9394 71.4146 47.5 72.5279 48.1397C73.6413 48.7795 73.6413 51.1785 72.5279 53.4175C71.5736 55.3367 69.9831 56.6162 68.8697 56.6162C68.7107 56.6162 68.5516 56.6162 68.2335 56.4562ZM46.9205 50.0589C46.4433 48.9394 47.0795 47.6599 48.1929 47.1801C49.3063 46.7003 50.5787 47.3401 51.0558 48.4596C51.533 49.5791 50.8968 50.8586 49.7834 51.3384C49.4653 51.4983 49.3063 51.4983 48.9882 51.4983C48.0338 51.4983 47.2386 51.0185 46.9205 50.0589ZM57.0998 47.9798C56.3046 46.0606 57.4179 43.8215 59.3266 43.1818C61.2352 42.3822 63.4619 43.5017 64.0981 45.4209C64.7343 47.3401 63.78 49.5791 61.8714 50.2189C61.3942 50.3788 61.0761 50.3788 60.599 50.3788C59.0085 50.5387 57.577 49.5791 57.0998 47.9798ZM18.132 43.0219C17.8139 42.0623 18.291 41.1027 19.0863 40.7828C20.0406 40.463 20.9949 40.9428 21.313 41.7424C21.6311 42.702 21.154 43.6616 20.3587 43.9815C20.1997 43.9815 19.8816 44.1414 19.7225 44.1414C19.0863 44.1414 18.4501 43.6616 18.132 43.0219ZM31.4924 44.1414C30.8562 42.3822 31.8105 40.303 33.5601 39.6633C35.3096 39.0236 37.3773 39.9832 38.0135 41.7424C38.6497 43.5017 37.6954 45.5808 35.9459 46.2205C35.6278 46.3805 35.1506 46.3805 34.8325 46.3805C33.401 46.3805 31.9695 45.4209 31.4924 44.1414ZM43.4213 39.3434C42.6261 37.2643 43.7394 34.8653 45.8071 34.0657C47.8748 33.266 50.2606 34.3855 51.0558 36.4646C51.8511 38.5438 50.7377 40.9428 48.6701 41.7424C48.1929 41.9024 47.7157 42.0623 47.2386 42.0623C45.6481 42.0623 44.0575 40.9428 43.4213 39.3434ZM55.1912 34.0657C54.8731 33.266 55.3503 32.4663 55.9865 32.3064C56.6227 31.9865 57.577 32.4663 57.736 33.1061C58.0541 33.9057 57.577 34.7054 56.9408 34.8653C56.7817 34.8653 56.6227 35.0252 56.4636 35.0252C55.8274 34.8653 55.3503 34.5455 55.1912 34.0657ZM39.1269 34.3855C38.6497 33.266 39.286 31.9865 40.3993 31.5067C41.5127 31.0269 42.7851 31.6667 43.2623 32.7862C43.7394 33.9057 43.1032 35.1852 41.9898 35.665C41.6717 35.8249 41.5127 35.8249 41.1946 35.8249C40.2403 35.8249 39.445 35.3451 39.1269 34.3855ZM65.0525 35.9848C63.78 32.3064 63.78 28.9478 65.2115 28.3081C66.643 27.8283 68.8697 30.2273 70.3012 33.9057C71.5736 37.5842 71.5736 40.9428 70.1421 41.5825C69.9831 41.5825 69.824 41.5825 69.665 41.5825C68.2335 41.7424 66.3249 39.3434 65.0525 35.9848ZM24.8122 40.6229C23.2217 39.6633 23.8579 35.665 26.4027 31.6667C28.7885 27.6683 31.9695 25.2694 33.5601 26.229C35.1506 27.1885 34.5144 31.1869 32.1286 35.1852C30.0609 38.5438 27.357 40.9428 25.7665 40.9428C25.2893 40.9428 24.9712 40.7828 24.8122 40.6229ZM36.5821 23.83C36.264 22.8704 36.7411 21.9108 37.5364 21.5909C38.4907 21.271 39.445 21.7508 39.7631 22.5505C40.0812 23.5101 39.6041 24.4697 38.8088 24.7896C38.6497 24.7896 38.4907 24.9495 38.1726 24.9495C37.5364 24.9495 36.9002 24.4697 36.5821 23.83ZM50.7377 27.3485C46.7614 27.0286 43.7394 24.9495 43.8985 23.0303C44.0575 20.9512 47.3976 19.6717 51.3739 20.1515C55.3503 20.4714 58.3722 22.5505 58.0541 24.4697C57.8951 26.229 55.1912 27.5084 52.0102 27.5084C51.6921 27.3485 51.2149 27.3485 50.7377 27.3485ZM42.9442 0C42.7851 0 42.6261 0 42.308 0C39.9222 0.319865 38.1726 1.75926 38.3316 3.35859C38.4907 4.79798 39.9222 5.75758 41.8308 5.91751C42.308 11.835 42.467 14.3939 41.6717 17.7525C40.3993 17.9125 39.286 18.2323 38.0135 18.7121C37.0592 17.2727 36.264 15.6734 34.9915 12.4747C36.1049 11.835 36.5821 10.7155 36.264 9.91582C35.7868 8.7963 34.3553 8.47643 32.7648 9.11616C31.3333 9.75589 30.379 11.0354 30.8562 11.9949C31.3333 12.7946 32.2876 13.2744 33.401 13.1145C34.5144 16.3131 35.1506 17.9125 35.1506 19.8316C31.9695 21.271 31.8105 23.9899 23.3807 12.3148C24.4941 10.8754 24.6531 9.11616 23.8579 8.15656C22.7445 6.8771 20.5178 7.19697 18.7682 8.7963C17.0186 10.3956 16.3824 12.6347 17.4958 13.9141C18.291 14.8737 20.0406 14.8737 21.4721 14.0741C29.2657 25.4293 27.357 24.4697 24.9712 27.1886C23.5398 26.3889 22.1083 25.4293 19.7225 23.5101C20.0406 22.2306 19.8816 21.1111 18.9272 20.6313C17.9729 20.1515 16.5415 20.9512 15.7462 22.3906C14.9509 23.83 15.269 25.4293 16.2234 25.9091C17.0186 26.229 17.9729 25.9091 18.7682 25.1094C20.9949 27.0286 22.2673 28.1481 23.2217 29.4276C21.154 32.1465 22.2673 34.5455 9.54315 28.7879C9.54315 27.0286 8.74788 25.4293 7.47547 25.1094C5.88494 24.7896 4.13536 26.3889 3.65821 28.6279C3.18105 30.867 3.97631 33.1061 5.72589 33.4259C6.99831 33.7458 8.27073 32.7862 9.06599 31.3468C21.154 37.1044 18.7682 36.9444 17.6548 41.4226C16.0643 41.5825 14.3147 41.4226 11.1337 40.9428C10.9746 39.8232 10.3384 38.8636 9.54315 38.8636C8.42978 38.7037 7.31641 39.8232 7.15736 41.4226C6.99831 43.0219 7.63452 44.4613 8.74788 44.6212C9.7022 44.7811 10.4975 43.9815 10.9746 42.702C13.9966 43.1818 15.5871 43.5017 17.1777 44.3013C16.8596 47.5 18.9272 48.9394 5.88494 50.3788C5.40778 48.4596 3.97631 47.1801 2.54484 47.3401C0.954315 47.3401 0 48.9394 0 50.8586V51.0185C0 51.3384 0 51.4983 0 51.8182C0.318105 54.2172 1.90863 55.8165 3.49915 55.6566C4.77157 55.4966 5.56684 54.2172 5.88494 52.7778C11.6108 52.298 14.1557 52.138 17.3367 53.0976C17.9729 56.7761 19.7225 56.936 12.247 59.8148C11.4518 58.6953 10.3384 58.2155 9.3841 58.6953C8.42978 59.1751 8.27073 60.7744 8.90694 62.2138C9.7022 63.6532 11.1337 64.2929 12.088 63.8131C12.8832 63.4933 13.0423 62.3737 12.8832 61.4141C20.3587 58.6953 18.7682 59.6549 20.8359 63.1734C18.9272 65.7323 17.0186 67.6515 12.4061 71.0101C11.1337 69.7306 9.54315 69.2508 8.42978 69.8906C6.99831 70.6902 6.83926 73.0892 8.11168 75.1683C9.3841 77.2475 11.4518 78.0471 12.8832 77.2475C13.9966 76.6077 14.3147 74.8485 13.6785 73.2492C18.4501 69.8906 20.5178 68.6111 23.8579 67.8114C25.9256 70.2104 27.357 69.4108 22.7445 75.1683C21.6311 74.5286 20.3587 74.6885 19.7225 75.3283C19.0863 76.2879 19.5635 77.7273 20.8359 78.6869C22.1083 79.6465 23.6988 79.6465 24.335 78.6869C24.8122 78.0471 24.6531 76.9276 24.0169 76.1279C28.7885 70.3704 27.8342 71.8098 31.3333 73.8889C30.8562 77.2475 30.22 79.6465 27.6751 85.2441C25.9256 84.9242 24.335 85.2441 23.8579 86.5236C23.0626 87.963 24.335 90.0421 26.4027 91.0017C28.4704 91.9613 30.8562 91.6414 31.4924 90.202C32.1286 89.0825 31.4924 87.4832 30.0609 86.3636C35.9459 73.8889 35.7868 76.4478 40.2403 77.4074C40.3993 79.0067 40.2403 80.6061 39.7631 83.4848C38.6497 83.4848 37.6954 83.9646 37.5364 84.9242C37.2183 86.0438 38.3316 87.1633 39.9222 87.6431C41.5127 88.1229 42.9442 87.4832 43.2623 86.3636C43.4213 85.404 42.7851 84.4444 41.5127 83.9646C41.9898 81.0859 42.308 79.4865 42.9442 78.0471C46.1252 78.5269 47.5567 76.2879 48.9882 89.4024C47.3976 89.8821 46.2843 91.0017 46.2843 92.2811C46.2843 93.8805 48.1929 95.1599 50.4196 95.1599H50.5787C52.9645 95.1599 54.8731 93.7205 54.8731 92.1212C54.8731 90.6818 53.4416 89.5623 51.692 89.2424C51.2149 83.4848 51.0558 80.9259 52.0102 77.7273C55.6684 77.0875 55.6684 75.3283 58.5313 82.6852C57.4179 83.3249 56.9408 84.2845 57.2589 85.2441C57.577 86.3636 59.1675 86.6835 60.758 86.2037C62.3486 85.7239 63.1438 84.4444 62.8257 83.3249C62.5076 82.5252 61.3942 82.0454 60.2809 82.2054C57.577 74.5286 58.3722 76.1279 62.0305 74.0488C64.7344 76.1279 66.4839 77.8872 69.9831 82.6852C68.8697 83.8047 68.5516 85.2441 69.1878 86.3636C69.9831 87.803 72.3689 87.963 74.4365 86.8434C76.5042 85.7239 77.4585 83.4848 76.6633 82.0454C76.0271 80.766 74.1184 80.4461 72.3689 81.2458C64.7344 70.2104 66.643 71.0101 69.0288 68.4512C70.4602 69.0909 71.7327 70.0505 73.9594 71.8098C73.4822 72.9293 73.4822 74.0488 74.2775 74.6885C75.2318 75.3283 76.6633 74.8485 77.6176 73.569C78.5719 72.2896 78.5719 70.6902 77.6176 70.0505C76.9814 69.5707 75.868 69.7306 74.9137 70.5303C72.846 68.771 71.7327 67.8114 70.7783 66.532C72.846 63.8131 71.7327 61.4141 83.9797 66.8518C83.6616 68.6111 84.2978 70.2104 85.5702 70.6902C87.1607 71.33 89.0694 69.8906 89.8646 67.6515C90.6599 65.4125 90.0237 63.1734 88.5922 62.5337C87.3198 62.0539 85.8883 62.8535 84.934 64.2929C73.0051 58.6953 75.5499 58.6953 76.5042 54.2172C78.0947 54.0572 79.8443 54.2172 82.7073 54.697C82.7073 55.9764 83.5025 57.096 84.4568 57.2559C85.5702 57.4158 86.6836 56.1364 86.8426 54.537C87.0017 52.9377 86.2064 51.4983 85.0931 51.4983C84.2978 51.3384 83.5025 52.138 83.0254 53.0976C75.3909 51.8182 77.1404 51.8182 77.1404 47.8199C80.0034 46.5404 82.5482 46.0606 88.4332 45.4209C89.0694 46.8603 90.1827 47.8199 91.2961 47.6599C92.7276 47.5 93.841 45.9007 93.841 43.8215V43.6616C93.841 43.5017 93.841 43.3417 93.841 43.0219C93.841 40.6229 92.2504 38.8636 90.6599 39.0236C89.2284 39.1835 88.2741 40.7828 88.1151 42.702C75.0728 43.8215 77.1404 42.702 75.868 38.7037C77.2995 37.5842 78.89 36.9444 82.0711 35.665C82.7073 36.6246 83.8206 37.1044 84.6159 36.7845C85.7293 36.3047 86.0474 34.8653 85.4112 33.266C84.775 31.8266 83.5025 30.867 82.3892 31.3468C81.5939 31.6667 81.1168 32.7862 81.4349 34.0657C78.2538 35.1852 76.6633 35.8249 74.9137 35.8249C73.4822 32.6263 70.7783 32.4663 82.3892 23.9899C83.6616 25.1094 85.4112 25.5892 86.3655 24.7896C87.6379 23.83 87.6379 21.431 86.2064 19.5118C84.775 17.5926 82.5482 16.7929 81.2758 17.7525C80.1624 18.5522 80.0034 20.1515 80.7986 21.7508C75.5499 25.4293 73.4822 26.8687 69.9831 27.6683C69.3469 26.8687 68.5516 26.069 67.7563 25.2694C68.5516 23.83 69.5059 22.3906 71.5736 19.8316C72.687 20.3114 73.8003 20.1515 74.2775 19.3519C74.9137 18.3923 74.4366 16.9529 73.0051 15.9933C71.7327 15.0337 70.1421 15.0337 69.5059 15.9933C69.0288 16.7929 69.1878 17.9125 70.1421 18.8721C68.2335 21.271 67.1201 22.5505 65.6887 23.5101C62.9848 21.431 60.599 22.7104 66.1658 9.91582C67.9154 10.2357 69.5059 9.75589 69.9831 8.47643C70.6193 7.03704 69.5059 4.95791 67.2792 3.99832C65.0525 3.19865 62.8257 3.67845 62.0305 5.11785C61.5533 6.39731 62.1895 7.8367 63.621 8.7963C56.6227 23.0303 52.8054 21.1111 53.9188 11.5152C55.1912 11.3552 56.3046 10.5556 56.3046 9.43603C56.3046 8.3165 55.0321 7.3569 53.4416 7.3569C51.8511 7.3569 50.5787 8.3165 50.5787 9.43603C50.5787 10.2357 51.2149 10.8754 52.3283 11.1953C51.8511 14.0741 51.533 15.8333 50.7377 17.2727C47.5567 16.7929 46.1252 19.032 44.6937 5.27778C46.2843 4.63805 47.2386 3.51852 47.0795 2.23906C46.7614 1.11953 45.1709 0 42.9442 0Z" fill="white"/>
</svg>
